<svg xmlns="http://www.w3.org/2000/svg" xmlns:xlink="http://www.w3.org/1999/xlink" width="500" zoomAndPan="magnify" viewBox="0 0 375 299.999988" height="400" preserveAspectRatio="xMidYMid meet" version="1.0"><rect x="-37.5" width="450" fill="#ffffff" y="-29.999999" height="359.999986" fill-opacity="1"/><path fill="#d97706" d="M 48.75 144 L 84.75 144 L 84.75 156 L 48.75 156 M 96.75 144 L 132.75 144 L 132.75 156 L 96.75 156 M 144.75 144 L 180.75 144 L 180.75 156 L 144.75 156 M 192.75 144 L 228.75 144 L 228.75 156 L 192.75 156 M 240.75 144 L 276.75 144 L 276.75 156 L 240.75 156 M 288.75 144 L 324.75 144 L 324.75 156 L 288.75 156 " fill-opacity="1" fill-rule="nonzero"/><path stroke-linecap="round" transform="matrix(0.75, 0, 0, 0.75, 15.750006, 143.999988)" fill-opacity="1" fill="#d97706" fill-rule="nonzero" stroke-linejoin="round" d="M 39.999995 -15.999986 L 7.999992 8.000016 L 39.999995 32.000018 Z M 39.999995 -15.999986 " stroke="#d97706" stroke-width="16" stroke-opacity="1" stroke-miterlimit="4"/><path stroke-linecap="round" transform="matrix(0.75, 0, 0, 0.75, 15.750006, 143.999988)" fill-opacity="1" fill="#d97706" fill-rule="nonzero" stroke-linejoin="round" d="M 418.000026 -15.999986 L 450.000028 8.000016 L 418.000026 32.000018 Z M 418.000026 -15.999986 " stroke="#d97706" stroke-width="16" stroke-opacity="1" stroke-miterlimit="4"/></svg>