<svg xmlns="http://www.w3.org/2000/svg" xmlns:xlink="http://www.w3.org/1999/xlink" width="55" zoomAndPan="magnify" viewBox="0 0 41.25 41.250001" height="55" preserveAspectRatio="xMidYMid meet" version="1.0"><defs><clipPath id="0eb3d6fb51"><path d="M 0 0 L 40.511719 0 L 40.511719 40.511719 L 0 40.511719 Z M 0 0 " clip-rule="nonzero"/></clipPath><clipPath id="6700e0bb62"><path d="M 6.511719 13.335938 L 8.585938 13.335938 L 8.585938 16.84375 L 6.511719 16.84375 Z M 1.296875 13.335938 L 3.363281 13.335938 L 3.363281 16.84375 L 1.296875 16.84375 Z M 1.296875 16.84375 L 8.585938 16.84375 L 8.585938 18.648438 L 1.296875 18.648438 Z M 1.296875 18.648438 L 3.363281 18.648438 L 3.363281 22.449219 L 1.296875 22.449219 Z M 6.511719 18.648438 L 8.585938 18.648438 L 8.585938 22.449219 L 6.511719 22.449219 Z M 6.511719 18.648438 " clip-rule="nonzero"/></clipPath><linearGradient x1="6.092896" gradientTransform="matrix(2.086253, 0, 0, -2.610318, -12.144697, 1482.830535)" y1="562.244943" x2="10.288469" gradientUnits="userSpaceOnUse" y2="560.176674" id="6380e991d2"><stop stop-opacity="1" stop-color="rgb(23.919678%, 69.799805%, 54.899597%)" offset="0"/><stop stop-opacity="1" stop-color="rgb(23.919678%, 69.799805%, 54.899597%)" offset="0.125"/><stop stop-opacity="1" stop-color="rgb(23.919678%, 69.798279%, 54.899597%)" offset="0.15625"/><stop stop-opacity="1" stop-color="rgb(23.931885%, 69.68689%, 54.934692%)" offset="0.164062"/><stop stop-opacity="1" stop-color="rgb(23.957825%, 69.470215%, 55.003357%)" offset="0.171875"/><stop stop-opacity="1" stop-color="rgb(23.982239%, 69.252014%, 55.072021%)" offset="0.179687"/><stop stop-opacity="1" stop-color="rgb(24.008179%, 69.035339%, 55.140686%)" offset="0.1875"/><stop stop-opacity="1" stop-color="rgb(24.034119%, 68.817139%, 55.210876%)" offset="0.195312"/><stop stop-opacity="1" stop-color="rgb(24.060059%, 68.600464%, 55.279541%)" offset="0.203125"/><stop stop-opacity="1" stop-color="rgb(24.084473%, 68.383789%, 55.348206%)" offset="0.210937"/><stop stop-opacity="1" stop-color="rgb(24.110413%, 68.165588%, 55.41687%)" offset="0.21875"/><stop stop-opacity="1" stop-color="rgb(24.136353%, 67.948914%, 55.487061%)" offset="0.226562"/><stop stop-opacity="1" stop-color="rgb(24.162292%, 67.730713%, 55.555725%)" offset="0.234375"/><stop stop-opacity="1" stop-color="rgb(24.186707%, 67.514038%, 55.62439%)" offset="0.242188"/><stop stop-opacity="1" stop-color="rgb(24.212646%, 67.295837%, 55.693054%)" offset="0.25"/><stop stop-opacity="1" stop-color="rgb(24.238586%, 67.079163%, 55.763245%)" offset="0.257812"/><stop stop-opacity="1" stop-color="rgb(24.264526%, 66.862488%, 55.831909%)" offset="0.265625"/><stop stop-opacity="1" stop-color="rgb(24.28894%, 66.644287%, 55.900574%)" offset="0.273438"/><stop stop-opacity="1" stop-color="rgb(24.31488%, 66.427612%, 55.969238%)" offset="0.28125"/><stop stop-opacity="1" stop-color="rgb(24.34082%, 66.209412%, 56.039429%)" offset="0.289062"/><stop stop-opacity="1" stop-color="rgb(24.36676%, 65.992737%, 56.108093%)" offset="0.296875"/><stop stop-opacity="1" stop-color="rgb(24.391174%, 65.774536%, 56.176758%)" offset="0.304687"/><stop stop-opacity="1" stop-color="rgb(24.417114%, 65.557861%, 56.246948%)" offset="0.3125"/><stop stop-opacity="1" stop-color="rgb(24.443054%, 65.341187%, 56.315613%)" offset="0.320312"/><stop stop-opacity="1" stop-color="rgb(24.468994%, 65.122986%, 56.384277%)" offset="0.328125"/><stop stop-opacity="1" stop-color="rgb(24.493408%, 64.906311%, 56.452942%)" offset="0.330093"/><stop stop-opacity="1" stop-color="rgb(24.507141%, 64.797974%, 56.488037%)" offset="0.335938"/><stop stop-opacity="1" stop-color="rgb(24.519348%, 64.68811%, 56.523132%)" offset="0.34375"/><stop stop-opacity="1" stop-color="rgb(24.545288%, 64.471436%, 56.591797%)" offset="0.351562"/><stop stop-opacity="1" stop-color="rgb(24.571228%, 64.253235%, 56.660461%)" offset="0.359375"/><stop stop-opacity="1" stop-color="rgb(24.595642%, 64.03656%, 56.729126%)" offset="0.367188"/><stop stop-opacity="1" stop-color="rgb(24.621582%, 63.819885%, 56.799316%)" offset="0.375"/><stop stop-opacity="1" stop-color="rgb(24.647522%, 63.601685%, 56.867981%)" offset="0.382813"/><stop stop-opacity="1" stop-color="rgb(24.673462%, 63.38501%, 56.936646%)" offset="0.390625"/><stop stop-opacity="1" stop-color="rgb(24.699402%, 63.166809%, 57.00531%)" offset="0.398438"/><stop stop-opacity="1" stop-color="rgb(24.723816%, 62.950134%, 57.0755%)" offset="0.40625"/><stop stop-opacity="1" stop-color="rgb(24.749756%, 62.731934%, 57.144165%)" offset="0.414062"/><stop stop-opacity="1" stop-color="rgb(24.775696%, 62.515259%, 57.21283%)" offset="0.421875"/><stop stop-opacity="1" stop-color="rgb(24.801636%, 62.297058%, 57.281494%)" offset="0.429688"/><stop stop-opacity="1" stop-color="rgb(24.82605%, 62.080383%, 57.351685%)" offset="0.4375"/><stop stop-opacity="1" stop-color="rgb(24.85199%, 61.863708%, 57.420349%)" offset="0.445312"/><stop stop-opacity="1" stop-color="rgb(24.87793%, 61.645508%, 57.489014%)" offset="0.453125"/><stop stop-opacity="1" stop-color="rgb(24.90387%, 61.428833%, 57.557678%)" offset="0.460937"/><stop stop-opacity="1" stop-color="rgb(24.928284%, 61.210632%, 57.627869%)" offset="0.46875"/><stop stop-opacity="1" stop-color="rgb(24.954224%, 60.993958%, 57.696533%)" offset="0.476562"/><stop stop-opacity="1" stop-color="rgb(24.980164%, 60.775757%, 57.765198%)" offset="0.484375"/><stop stop-opacity="1" stop-color="rgb(25.006104%, 60.559082%, 57.833862%)" offset="0.492187"/><stop stop-opacity="1" stop-color="rgb(25.030518%, 60.342407%, 57.904053%)" offset="0.5"/><stop stop-opacity="1" stop-color="rgb(25.056458%, 60.124207%, 57.972717%)" offset="0.507812"/><stop stop-opacity="1" stop-color="rgb(25.082397%, 59.907532%, 58.041382%)" offset="0.515625"/><stop stop-opacity="1" stop-color="rgb(25.108337%, 59.689331%, 58.110046%)" offset="0.523438"/><stop stop-opacity="1" stop-color="rgb(25.132751%, 59.472656%, 58.180237%)" offset="0.53125"/><stop stop-opacity="1" stop-color="rgb(25.158691%, 59.254456%, 58.248901%)" offset="0.539062"/><stop stop-opacity="1" stop-color="rgb(25.184631%, 59.037781%, 58.317566%)" offset="0.546875"/><stop stop-opacity="1" stop-color="rgb(25.210571%, 58.821106%, 58.38623%)" offset="0.554688"/><stop stop-opacity="1" stop-color="rgb(25.234985%, 58.602905%, 58.456421%)" offset="0.5625"/><stop stop-opacity="1" stop-color="rgb(25.260925%, 58.38623%, 58.525085%)" offset="0.570312"/><stop stop-opacity="1" stop-color="rgb(25.286865%, 58.16803%, 58.59375%)" offset="0.578125"/><stop stop-opacity="1" stop-color="rgb(25.312805%, 57.951355%, 58.662415%)" offset="0.585937"/><stop stop-opacity="1" stop-color="rgb(25.337219%, 57.733154%, 58.732605%)" offset="0.59375"/><stop stop-opacity="1" stop-color="rgb(25.363159%, 57.516479%, 58.80127%)" offset="0.601562"/><stop stop-opacity="1" stop-color="rgb(25.389099%, 57.298279%, 58.869934%)" offset="0.609375"/><stop stop-opacity="1" stop-color="rgb(25.415039%, 57.081604%, 58.938599%)" offset="0.617188"/><stop stop-opacity="1" stop-color="rgb(25.439453%, 56.864929%, 59.008789%)" offset="0.625"/><stop stop-opacity="1" stop-color="rgb(25.465393%, 56.646729%, 59.077454%)" offset="0.632812"/><stop stop-opacity="1" stop-color="rgb(25.491333%, 56.430054%, 59.146118%)" offset="0.640625"/><stop stop-opacity="1" stop-color="rgb(25.517273%, 56.211853%, 59.216309%)" offset="0.648438"/><stop stop-opacity="1" stop-color="rgb(25.541687%, 55.995178%, 59.284973%)" offset="0.65625"/><stop stop-opacity="1" stop-color="rgb(25.567627%, 55.776978%, 59.353638%)" offset="0.664062"/><stop stop-opacity="1" stop-color="rgb(25.593567%, 55.560303%, 59.422302%)" offset="0.669907"/><stop stop-opacity="1" stop-color="rgb(25.6073%, 55.451965%, 59.457397%)" offset="0.671875"/><stop stop-opacity="1" stop-color="rgb(25.619507%, 55.343628%, 59.492493%)" offset="0.679687"/><stop stop-opacity="1" stop-color="rgb(25.643921%, 55.125427%, 59.561157%)" offset="0.6875"/><stop stop-opacity="1" stop-color="rgb(25.669861%, 54.908752%, 59.629822%)" offset="0.695312"/><stop stop-opacity="1" stop-color="rgb(25.695801%, 54.690552%, 59.698486%)" offset="0.703125"/><stop stop-opacity="1" stop-color="rgb(25.721741%, 54.473877%, 59.768677%)" offset="0.710938"/><stop stop-opacity="1" stop-color="rgb(25.746155%, 54.255676%, 59.837341%)" offset="0.71875"/><stop stop-opacity="1" stop-color="rgb(25.772095%, 54.039001%, 59.906006%)" offset="0.726562"/><stop stop-opacity="1" stop-color="rgb(25.798035%, 53.822327%, 59.97467%)" offset="0.734375"/><stop stop-opacity="1" stop-color="rgb(25.823975%, 53.604126%, 60.044861%)" offset="0.742187"/><stop stop-opacity="1" stop-color="rgb(25.848389%, 53.387451%, 60.113525%)" offset="0.75"/><stop stop-opacity="1" stop-color="rgb(25.874329%, 53.16925%, 60.18219%)" offset="0.757812"/><stop stop-opacity="1" stop-color="rgb(25.900269%, 52.952576%, 60.250854%)" offset="0.765625"/><stop stop-opacity="1" stop-color="rgb(25.926208%, 52.734375%, 60.321045%)" offset="0.773438"/><stop stop-opacity="1" stop-color="rgb(25.950623%, 52.5177%, 60.389709%)" offset="0.78125"/><stop stop-opacity="1" stop-color="rgb(25.976562%, 52.301025%, 60.458374%)" offset="0.789062"/><stop stop-opacity="1" stop-color="rgb(26.002502%, 52.082825%, 60.527039%)" offset="0.796875"/><stop stop-opacity="1" stop-color="rgb(26.028442%, 51.86615%, 60.597229%)" offset="0.804688"/><stop stop-opacity="1" stop-color="rgb(26.052856%, 51.647949%, 60.665894%)" offset="0.8125"/><stop stop-opacity="1" stop-color="rgb(26.078796%, 51.431274%, 60.734558%)" offset="0.820312"/><stop stop-opacity="1" stop-color="rgb(26.104736%, 51.213074%, 60.803223%)" offset="0.828125"/><stop stop-opacity="1" stop-color="rgb(26.130676%, 50.996399%, 60.873413%)" offset="0.835938"/><stop stop-opacity="1" stop-color="rgb(26.15509%, 50.778198%, 60.942078%)" offset="0.84375"/><stop stop-opacity="1" stop-color="rgb(26.18103%, 50.561523%, 61.010742%)" offset="0.851562"/><stop stop-opacity="1" stop-color="rgb(26.20697%, 50.344849%, 61.079407%)" offset="0.859375"/><stop stop-opacity="1" stop-color="rgb(26.23291%, 50.126648%, 61.149597%)" offset="0.867187"/><stop stop-opacity="1" stop-color="rgb(26.257324%, 49.909973%, 61.218262%)" offset="0.875"/><stop stop-opacity="1" stop-color="rgb(26.283264%, 49.691772%, 61.286926%)" offset="0.882812"/><stop stop-opacity="1" stop-color="rgb(26.309204%, 49.475098%, 61.355591%)" offset="0.890625"/><stop stop-opacity="1" stop-color="rgb(26.335144%, 49.256897%, 61.425781%)" offset="0.898438"/><stop stop-opacity="1" stop-color="rgb(26.359558%, 49.040222%, 61.494446%)" offset="0.90625"/><stop stop-opacity="1" stop-color="rgb(26.385498%, 48.823547%, 61.56311%)" offset="0.914062"/><stop stop-opacity="1" stop-color="rgb(26.411438%, 48.605347%, 61.631775%)" offset="0.921875"/><stop stop-opacity="1" stop-color="rgb(26.437378%, 48.388672%, 61.701965%)" offset="0.929687"/><stop stop-opacity="1" stop-color="rgb(26.461792%, 48.170471%, 61.77063%)" offset="0.9375"/><stop stop-opacity="1" stop-color="rgb(26.487732%, 47.953796%, 61.839294%)" offset="0.945312"/><stop stop-opacity="1" stop-color="rgb(26.513672%, 47.735596%, 61.907959%)" offset="0.953125"/><stop stop-opacity="1" stop-color="rgb(26.539612%, 47.518921%, 61.978149%)" offset="0.960937"/><stop stop-opacity="1" stop-color="rgb(26.564026%, 47.302246%, 62.046814%)" offset="0.96875"/><stop stop-opacity="1" stop-color="rgb(26.589966%, 47.084045%, 62.115479%)" offset="0.976562"/><stop stop-opacity="1" stop-color="rgb(26.615906%, 46.867371%, 62.185669%)" offset="0.984375"/><stop stop-opacity="1" stop-color="rgb(26.641846%, 46.64917%, 62.254333%)" offset="0.992188"/><stop stop-opacity="1" stop-color="rgb(26.66626%, 46.432495%, 62.322998%)" offset="1"/></linearGradient><clipPath id="57c2684984"><path d="M 9 13 L 17 13 L 17 23 L 9 23 Z M 9 13 " clip-rule="nonzero"/></clipPath><clipPath id="3a8ed7223f"><path d="M 9.519531 13.335938 L 12.105469 13.335938 C 12.746094 13.328125 13.382812 13.414062 14 13.601562 C 14.535156 13.761719 15.03125 14.042969 15.441406 14.414062 C 15.855469 14.808594 16.175781 15.285156 16.367188 15.820312 C 16.597656 16.472656 16.707031 17.15625 16.695312 17.847656 C 16.707031 18.542969 16.597656 19.230469 16.367188 19.882812 C 15.992188 20.964844 15.136719 21.808594 14.042969 22.164062 C 13.453125 22.355469 12.835938 22.449219 12.214844 22.445312 L 9.519531 22.445312 Z M 11.972656 20.785156 C 12.335938 20.792969 12.695312 20.734375 13.035156 20.628906 C 13.339844 20.535156 13.621094 20.367188 13.851562 20.136719 C 14.09375 19.882812 14.273438 19.574219 14.378906 19.238281 C 14.515625 18.789062 14.578125 18.324219 14.566406 17.851562 C 14.578125 17.390625 14.515625 16.933594 14.378906 16.492188 C 14.273438 16.160156 14.09375 15.855469 13.851562 15.609375 C 13.621094 15.386719 13.347656 15.222656 13.035156 15.136719 C 12.6875 15.039062 12.328125 14.992188 11.972656 15 L 11.582031 15 L 11.582031 20.785156 Z M 11.972656 20.785156 " clip-rule="nonzero"/></clipPath><linearGradient x1="8.817139" gradientTransform="matrix(2.054563, 0, 0, -2.610641, -9.600494, 1483.012536)" y1="561.982539" x2="13.013739" gradientUnits="userSpaceOnUse" y2="559.88158" id="6fcfccbc9e"><stop stop-opacity="1" stop-color="rgb(25.045776%, 60.215759%, 57.943726%)" offset="0"/><stop stop-opacity="1" stop-color="rgb(25.057983%, 60.105896%, 57.978821%)" offset="0.0078125"/><stop stop-opacity="1" stop-color="rgb(25.083923%, 59.884644%, 58.049011%)" offset="0.015625"/><stop stop-opacity="1" stop-color="rgb(25.109863%, 59.663391%, 58.119202%)" offset="0.0234375"/><stop stop-opacity="1" stop-color="rgb(25.135803%, 59.443665%, 58.189392%)" offset="0.03125"/><stop stop-opacity="1" stop-color="rgb(25.161743%, 59.222412%, 58.259583%)" offset="0.0390625"/><stop stop-opacity="1" stop-color="rgb(25.187683%, 59.00116%, 58.329773%)" offset="0.046875"/><stop stop-opacity="1" stop-color="rgb(25.213623%, 58.779907%, 58.399963%)" offset="0.0546875"/><stop stop-opacity="1" stop-color="rgb(25.239563%, 58.560181%, 58.470154%)" offset="0.0625"/><stop stop-opacity="1" stop-color="rgb(25.267029%, 58.338928%, 58.540344%)" offset="0.0703125"/><stop stop-opacity="1" stop-color="rgb(25.292969%, 58.117676%, 58.610535%)" offset="0.078125"/><stop stop-opacity="1" stop-color="rgb(25.318909%, 57.897949%, 58.680725%)" offset="0.0859375"/><stop stop-opacity="1" stop-color="rgb(25.344849%, 57.676697%, 58.750916%)" offset="0.09375"/><stop stop-opacity="1" stop-color="rgb(25.370789%, 57.455444%, 58.821106%)" offset="0.101563"/><stop stop-opacity="1" stop-color="rgb(25.396729%, 57.235718%, 58.891296%)" offset="0.109375"/><stop stop-opacity="1" stop-color="rgb(25.422668%, 57.014465%, 58.961487%)" offset="0.117187"/><stop stop-opacity="1" stop-color="rgb(25.448608%, 56.793213%, 59.031677%)" offset="0.125"/><stop stop-opacity="1" stop-color="rgb(25.474548%, 56.573486%, 59.101868%)" offset="0.132813"/><stop stop-opacity="1" stop-color="rgb(25.500488%, 56.352234%, 59.172058%)" offset="0.140625"/><stop stop-opacity="1" stop-color="rgb(25.526428%, 56.130981%, 59.242249%)" offset="0.148437"/><stop stop-opacity="1" stop-color="rgb(25.552368%, 55.911255%, 59.312439%)" offset="0.15625"/><stop stop-opacity="1" stop-color="rgb(25.578308%, 55.690002%, 59.382629%)" offset="0.164063"/><stop stop-opacity="1" stop-color="rgb(25.604248%, 55.46875%, 59.45282%)" offset="0.171875"/><stop stop-opacity="1" stop-color="rgb(25.630188%, 55.249023%, 59.52301%)" offset="0.179688"/><stop stop-opacity="1" stop-color="rgb(25.656128%, 55.027771%, 59.593201%)" offset="0.1875"/><stop stop-opacity="1" stop-color="rgb(25.682068%, 54.806519%, 59.663391%)" offset="0.195313"/><stop stop-opacity="1" stop-color="rgb(25.708008%, 54.585266%, 59.732056%)" offset="0.203125"/><stop stop-opacity="1" stop-color="rgb(25.733948%, 54.36554%, 59.802246%)" offset="0.210938"/><stop stop-opacity="1" stop-color="rgb(25.759888%, 54.144287%, 59.872437%)" offset="0.21875"/><stop stop-opacity="1" stop-color="rgb(25.785828%, 53.923035%, 59.942627%)" offset="0.226563"/><stop stop-opacity="1" stop-color="rgb(25.811768%, 53.703308%, 60.012817%)" offset="0.234375"/><stop stop-opacity="1" stop-color="rgb(25.837708%, 53.482056%, 60.083008%)" offset="0.242188"/><stop stop-opacity="1" stop-color="rgb(25.863647%, 53.260803%, 60.153198%)" offset="0.25"/><stop stop-opacity="1" stop-color="rgb(25.889587%, 53.041077%, 60.223389%)" offset="0.257812"/><stop stop-opacity="1" stop-color="rgb(25.915527%, 52.819824%, 60.293579%)" offset="0.265625"/><stop stop-opacity="1" stop-color="rgb(25.941467%, 52.598572%, 60.36377%)" offset="0.273438"/><stop stop-opacity="1" stop-color="rgb(25.967407%, 52.378845%, 60.43396%)" offset="0.28125"/><stop stop-opacity="1" stop-color="rgb(25.993347%, 52.157593%, 60.50415%)" offset="0.289063"/><stop stop-opacity="1" stop-color="rgb(26.019287%, 51.93634%, 60.574341%)" offset="0.296875"/><stop stop-opacity="1" stop-color="rgb(26.045227%, 51.716614%, 60.644531%)" offset="0.304687"/><stop stop-opacity="1" stop-color="rgb(26.071167%, 51.495361%, 60.714722%)" offset="0.3125"/><stop stop-opacity="1" stop-color="rgb(26.097107%, 51.274109%, 60.784912%)" offset="0.320313"/><stop stop-opacity="1" stop-color="rgb(26.123047%, 51.054382%, 60.855103%)" offset="0.328125"/><stop stop-opacity="1" stop-color="rgb(26.148987%, 50.83313%, 60.925293%)" offset="0.33329"/><stop stop-opacity="1" stop-color="rgb(26.16272%, 50.723267%, 60.960388%)" offset="0.335938"/><stop stop-opacity="1" stop-color="rgb(26.174927%, 50.611877%, 60.995483%)" offset="0.34375"/><stop stop-opacity="1" stop-color="rgb(26.200867%, 50.390625%, 61.065674%)" offset="0.351563"/><stop stop-opacity="1" stop-color="rgb(26.226807%, 50.170898%, 61.135864%)" offset="0.359375"/><stop stop-opacity="1" stop-color="rgb(26.252747%, 49.949646%, 61.206055%)" offset="0.367188"/><stop stop-opacity="1" stop-color="rgb(26.278687%, 49.728394%, 61.276245%)" offset="0.375"/><stop stop-opacity="1" stop-color="rgb(26.304626%, 49.508667%, 61.346436%)" offset="0.382813"/><stop stop-opacity="1" stop-color="rgb(26.330566%, 49.287415%, 61.416626%)" offset="0.390625"/><stop stop-opacity="1" stop-color="rgb(26.356506%, 49.066162%, 61.486816%)" offset="0.398438"/><stop stop-opacity="1" stop-color="rgb(26.382446%, 48.846436%, 61.557007%)" offset="0.40625"/><stop stop-opacity="1" stop-color="rgb(26.408386%, 48.625183%, 61.627197%)" offset="0.414063"/><stop stop-opacity="1" stop-color="rgb(26.434326%, 48.403931%, 61.697388%)" offset="0.421875"/><stop stop-opacity="1" stop-color="rgb(26.460266%, 48.184204%, 61.767578%)" offset="0.429688"/><stop stop-opacity="1" stop-color="rgb(26.486206%, 47.962952%, 61.837769%)" offset="0.4375"/><stop stop-opacity="1" stop-color="rgb(26.512146%, 47.741699%, 61.907959%)" offset="0.445312"/><stop stop-opacity="1" stop-color="rgb(26.538086%, 47.521973%, 61.978149%)" offset="0.453125"/><stop stop-opacity="1" stop-color="rgb(26.564026%, 47.30072%, 62.04834%)" offset="0.460938"/><stop stop-opacity="1" stop-color="rgb(26.589966%, 47.079468%, 62.117004%)" offset="0.46875"/><stop stop-opacity="1" stop-color="rgb(26.615906%, 46.858215%, 62.187195%)" offset="0.476562"/><stop stop-opacity="1" stop-color="rgb(26.641846%, 46.638489%, 62.257385%)" offset="0.484375"/><stop stop-opacity="1" stop-color="rgb(26.667786%, 46.417236%, 62.327576%)" offset="0.492187"/><stop stop-opacity="1" stop-color="rgb(26.693726%, 46.195984%, 62.397766%)" offset="0.5"/><stop stop-opacity="1" stop-color="rgb(26.719666%, 45.976257%, 62.467957%)" offset="0.507812"/><stop stop-opacity="1" stop-color="rgb(26.745605%, 45.755005%, 62.538147%)" offset="0.515625"/><stop stop-opacity="1" stop-color="rgb(26.771545%, 45.533752%, 62.608337%)" offset="0.523438"/><stop stop-opacity="1" stop-color="rgb(26.797485%, 45.314026%, 62.678528%)" offset="0.53125"/><stop stop-opacity="1" stop-color="rgb(26.824951%, 45.092773%, 62.748718%)" offset="0.539063"/><stop stop-opacity="1" stop-color="rgb(26.850891%, 44.871521%, 62.818909%)" offset="0.546875"/><stop stop-opacity="1" stop-color="rgb(26.876831%, 44.651794%, 62.889099%)" offset="0.554687"/><stop stop-opacity="1" stop-color="rgb(26.902771%, 44.430542%, 62.95929%)" offset="0.5625"/><stop stop-opacity="1" stop-color="rgb(26.928711%, 44.20929%, 63.02948%)" offset="0.570312"/><stop stop-opacity="1" stop-color="rgb(26.954651%, 43.989563%, 63.09967%)" offset="0.578125"/><stop stop-opacity="1" stop-color="rgb(26.980591%, 43.768311%, 63.169861%)" offset="0.585938"/><stop stop-opacity="1" stop-color="rgb(27.006531%, 43.547058%, 63.240051%)" offset="0.59375"/><stop stop-opacity="1" stop-color="rgb(27.032471%, 43.327332%, 63.310242%)" offset="0.601562"/><stop stop-opacity="1" stop-color="rgb(27.058411%, 43.106079%, 63.380432%)" offset="0.609375"/><stop stop-opacity="1" stop-color="rgb(27.084351%, 42.884827%, 63.450623%)" offset="0.617187"/><stop stop-opacity="1" stop-color="rgb(27.110291%, 42.663574%, 63.520813%)" offset="0.625"/><stop stop-opacity="1" stop-color="rgb(27.13623%, 42.443848%, 63.591003%)" offset="0.632812"/><stop stop-opacity="1" stop-color="rgb(27.16217%, 42.222595%, 63.661194%)" offset="0.640625"/><stop stop-opacity="1" stop-color="rgb(27.18811%, 42.001343%, 63.731384%)" offset="0.648438"/><stop stop-opacity="1" stop-color="rgb(27.21405%, 41.781616%, 63.801575%)" offset="0.65625"/><stop stop-opacity="1" stop-color="rgb(27.23999%, 41.560364%, 63.871765%)" offset="0.664062"/><stop stop-opacity="1" stop-color="rgb(27.26593%, 41.339111%, 63.941956%)" offset="0.66671"/><stop stop-opacity="1" stop-color="rgb(27.279663%, 41.229248%, 63.977051%)" offset="0.671875"/><stop stop-opacity="1" stop-color="rgb(27.29187%, 41.119385%, 64.012146%)" offset="0.679688"/><stop stop-opacity="1" stop-color="rgb(27.31781%, 40.898132%, 64.082336%)" offset="0.6875"/><stop stop-opacity="1" stop-color="rgb(27.34375%, 40.67688%, 64.152527%)" offset="0.695313"/><stop stop-opacity="1" stop-color="rgb(27.36969%, 40.457153%, 64.222717%)" offset="0.703125"/><stop stop-opacity="1" stop-color="rgb(27.39563%, 40.235901%, 64.292908%)" offset="0.710938"/><stop stop-opacity="1" stop-color="rgb(27.42157%, 40.014648%, 64.363098%)" offset="0.71875"/><stop stop-opacity="1" stop-color="rgb(27.44751%, 39.794922%, 64.433289%)" offset="0.726562"/><stop stop-opacity="1" stop-color="rgb(27.47345%, 39.573669%, 64.503479%)" offset="0.734375"/><stop stop-opacity="1" stop-color="rgb(27.49939%, 39.352417%, 64.572144%)" offset="0.742188"/><stop stop-opacity="1" stop-color="rgb(27.52533%, 39.13269%, 64.642334%)" offset="0.75"/><stop stop-opacity="1" stop-color="rgb(27.55127%, 38.911438%, 64.712524%)" offset="0.757813"/><stop stop-opacity="1" stop-color="rgb(27.577209%, 38.690186%, 64.782715%)" offset="0.765625"/><stop stop-opacity="1" stop-color="rgb(27.603149%, 38.468933%, 64.852905%)" offset="0.773438"/><stop stop-opacity="1" stop-color="rgb(27.629089%, 38.249207%, 64.923096%)" offset="0.78125"/><stop stop-opacity="1" stop-color="rgb(27.655029%, 38.027954%, 64.993286%)" offset="0.789062"/><stop stop-opacity="1" stop-color="rgb(27.680969%, 37.806702%, 65.063477%)" offset="0.796875"/><stop stop-opacity="1" stop-color="rgb(27.706909%, 37.586975%, 65.133667%)" offset="0.804688"/><stop stop-opacity="1" stop-color="rgb(27.732849%, 37.365723%, 65.203857%)" offset="0.8125"/><stop stop-opacity="1" stop-color="rgb(27.758789%, 37.14447%, 65.274048%)" offset="0.820313"/><stop stop-opacity="1" stop-color="rgb(27.784729%, 36.924744%, 65.344238%)" offset="0.828125"/><stop stop-opacity="1" stop-color="rgb(27.818298%, 36.64093%, 65.434265%)" offset="0.84375"/><stop stop-opacity="1" stop-color="rgb(27.839661%, 36.468506%, 65.489197%)" offset="0.875"/><stop stop-opacity="1" stop-color="rgb(27.839661%, 36.468506%, 65.489197%)" offset="1"/></linearGradient><clipPath id="d49cfcea50"><path d="M 17 13 L 25 13 L 25 23 L 17 23 Z M 17 13 " clip-rule="nonzero"/></clipPath><clipPath id="3d397ad7ea"><path d="M 22.34375 22.449219 L 20.59375 19.167969 L 19.457031 19.167969 L 19.457031 22.449219 L 17.398438 22.449219 L 17.398438 13.335938 L 20.683594 13.335938 C 21.144531 13.335938 21.605469 13.378906 22.050781 13.472656 C 22.449219 13.550781 22.828125 13.714844 23.164062 13.9375 C 23.488281 14.160156 23.75 14.460938 23.921875 14.808594 C 24.121094 15.230469 24.222656 15.695312 24.203125 16.160156 C 24.226562 16.746094 24.070312 17.324219 23.761719 17.820312 C 23.46875 18.25 23.058594 18.589844 22.574219 18.789062 L 24.648438 22.4375 Z M 19.457031 17.527344 L 20.519531 17.527344 C 21.058594 17.527344 21.46875 17.417969 21.753906 17.1875 C 22.046875 16.9375 22.207031 16.558594 22.183594 16.175781 C 22.183594 15.726562 22.039062 15.417969 21.753906 15.234375 C 21.46875 15.0625 21.058594 14.976562 20.519531 14.976562 L 19.457031 14.976562 Z M 19.457031 17.527344 " clip-rule="nonzero"/></clipPath><linearGradient x1="11.505716" gradientTransform="matrix(2.078673, 0, 0, -2.610399, -7.488882, 1482.875734)" y1="562.012814" x2="15.696131" gradientUnits="userSpaceOnUse" y2="559.939552" id="6d5b79790a"><stop stop-opacity="1" stop-color="rgb(26.707458%, 46.096802%, 62.42981%)" offset="0"/><stop stop-opacity="1" stop-color="rgb(26.719666%, 45.986938%, 62.464905%)" offset="0.0078125"/><stop stop-opacity="1" stop-color="rgb(26.74408%, 45.770264%, 62.533569%)" offset="0.015625"/><stop stop-opacity="1" stop-color="rgb(26.77002%, 45.552063%, 62.602234%)" offset="0.0234375"/><stop stop-opacity="1" stop-color="rgb(26.795959%, 45.333862%, 62.672424%)" offset="0.03125"/><stop stop-opacity="1" stop-color="rgb(26.821899%, 45.115662%, 62.741089%)" offset="0.0390625"/><stop stop-opacity="1" stop-color="rgb(26.847839%, 44.898987%, 62.809753%)" offset="0.046875"/><stop stop-opacity="1" stop-color="rgb(26.872253%, 44.680786%, 62.879944%)" offset="0.0546875"/><stop stop-opacity="1" stop-color="rgb(26.898193%, 44.462585%, 62.948608%)" offset="0.0625"/><stop stop-opacity="1" stop-color="rgb(26.924133%, 44.244385%, 63.018799%)" offset="0.0703125"/><stop stop-opacity="1" stop-color="rgb(26.950073%, 44.026184%, 63.087463%)" offset="0.078125"/><stop stop-opacity="1" stop-color="rgb(26.976013%, 43.809509%, 63.156128%)" offset="0.0859375"/><stop stop-opacity="1" stop-color="rgb(27.000427%, 43.591309%, 63.226318%)" offset="0.09375"/><stop stop-opacity="1" stop-color="rgb(27.026367%, 43.373108%, 63.294983%)" offset="0.101563"/><stop stop-opacity="1" stop-color="rgb(27.052307%, 43.154907%, 63.363647%)" offset="0.109375"/><stop stop-opacity="1" stop-color="rgb(27.078247%, 42.938232%, 63.433838%)" offset="0.117188"/><stop stop-opacity="1" stop-color="rgb(27.104187%, 42.720032%, 63.502502%)" offset="0.125"/><stop stop-opacity="1" stop-color="rgb(27.128601%, 42.501831%, 63.571167%)" offset="0.132812"/><stop stop-opacity="1" stop-color="rgb(27.154541%, 42.28363%, 63.641357%)" offset="0.140625"/><stop stop-opacity="1" stop-color="rgb(27.180481%, 42.06543%, 63.710022%)" offset="0.148438"/><stop stop-opacity="1" stop-color="rgb(27.206421%, 41.848755%, 63.780212%)" offset="0.15625"/><stop stop-opacity="1" stop-color="rgb(27.230835%, 41.630554%, 63.848877%)" offset="0.164063"/><stop stop-opacity="1" stop-color="rgb(27.256775%, 41.412354%, 63.917542%)" offset="0.171875"/><stop stop-opacity="1" stop-color="rgb(27.282715%, 41.194153%, 63.987732%)" offset="0.179688"/><stop stop-opacity="1" stop-color="rgb(27.308655%, 40.977478%, 64.056396%)" offset="0.1875"/><stop stop-opacity="1" stop-color="rgb(27.334595%, 40.759277%, 64.125061%)" offset="0.195313"/><stop stop-opacity="1" stop-color="rgb(27.359009%, 40.541077%, 64.195251%)" offset="0.203125"/><stop stop-opacity="1" stop-color="rgb(27.384949%, 40.322876%, 64.263916%)" offset="0.210938"/><stop stop-opacity="1" stop-color="rgb(27.410889%, 40.104675%, 64.332581%)" offset="0.21875"/><stop stop-opacity="1" stop-color="rgb(27.436829%, 39.888%, 64.402771%)" offset="0.226562"/><stop stop-opacity="1" stop-color="rgb(27.462769%, 39.6698%, 64.471436%)" offset="0.234375"/><stop stop-opacity="1" stop-color="rgb(27.487183%, 39.451599%, 64.541626%)" offset="0.242188"/><stop stop-opacity="1" stop-color="rgb(27.513123%, 39.233398%, 64.610291%)" offset="0.25"/><stop stop-opacity="1" stop-color="rgb(27.539062%, 39.016724%, 64.678955%)" offset="0.257813"/><stop stop-opacity="1" stop-color="rgb(27.565002%, 38.798523%, 64.749146%)" offset="0.265625"/><stop stop-opacity="1" stop-color="rgb(27.590942%, 38.580322%, 64.81781%)" offset="0.273438"/><stop stop-opacity="1" stop-color="rgb(27.615356%, 38.362122%, 64.886475%)" offset="0.28125"/><stop stop-opacity="1" stop-color="rgb(27.641296%, 38.145447%, 64.956665%)" offset="0.289063"/><stop stop-opacity="1" stop-color="rgb(27.667236%, 37.927246%, 65.02533%)" offset="0.296875"/><stop stop-opacity="1" stop-color="rgb(27.693176%, 37.709045%, 65.093994%)" offset="0.304688"/><stop stop-opacity="1" stop-color="rgb(27.719116%, 37.490845%, 65.164185%)" offset="0.3125"/><stop stop-opacity="1" stop-color="rgb(27.74353%, 37.272644%, 65.232849%)" offset="0.320312"/><stop stop-opacity="1" stop-color="rgb(27.76947%, 37.055969%, 65.30304%)" offset="0.328125"/><stop stop-opacity="1" stop-color="rgb(27.79541%, 36.837769%, 65.371704%)" offset="0.331221"/><stop stop-opacity="1" stop-color="rgb(27.809143%, 36.729431%, 65.406799%)" offset="0.335938"/><stop stop-opacity="1" stop-color="rgb(27.82135%, 36.619568%, 65.440369%)" offset="0.34375"/><stop stop-opacity="1" stop-color="rgb(27.836609%, 36.489868%, 65.481567%)" offset="0.375"/><stop stop-opacity="1" stop-color="rgb(27.839661%, 36.468506%, 65.489197%)" offset="0.5"/><stop stop-opacity="1" stop-color="rgb(27.839661%, 36.468506%, 65.489197%)" offset="0.668779"/><stop stop-opacity="1" stop-color="rgb(27.839661%, 36.468506%, 65.489197%)" offset="1"/></linearGradient></defs><g clip-path="url(#0eb3d6fb51)"><path fill="#ffffff" d="M 0 0 L 40.511719 0 L 40.511719 40.511719 L 0 40.511719 Z M 0 0 " fill-opacity="1" fill-rule="nonzero"/><path fill="#ffffff" d="M 0 0 L 40.511719 0 L 40.511719 40.511719 L 0 40.511719 Z M 0 0 " fill-opacity="1" fill-rule="nonzero"/></g><path fill="#475da7" d="M 25.089844 13.335938 L 25.730469 13.335938 L 25.730469 18.882812 C 25.71875 19.394531 25.785156 19.902344 25.929688 20.394531 C 26.042969 20.746094 26.222656 21.078125 26.464844 21.363281 C 26.675781 21.597656 26.9375 21.777344 27.234375 21.882812 C 27.53125 21.984375 27.84375 22.039062 28.15625 22.035156 C 28.476562 22.035156 28.800781 21.984375 29.105469 21.882812 C 29.410156 21.777344 29.683594 21.597656 29.894531 21.363281 C 30.144531 21.082031 30.328125 20.753906 30.441406 20.394531 C 30.589844 19.902344 30.664062 19.394531 30.644531 18.878906 L 30.644531 13.335938 L 31.242188 13.335938 L 31.242188 18.953125 C 31.261719 19.554688 31.167969 20.152344 30.980469 20.714844 C 30.832031 21.140625 30.597656 21.523438 30.285156 21.847656 C 30.011719 22.121094 29.671875 22.324219 29.296875 22.445312 C 28.550781 22.675781 27.757812 22.675781 27.011719 22.445312 C 26.636719 22.324219 26.300781 22.128906 26.023438 21.847656 C 25.710938 21.523438 25.484375 21.140625 25.339844 20.714844 C 25.152344 20.144531 25.066406 19.546875 25.085938 18.945312 Z M 32.261719 13.335938 L 32.902344 13.335938 L 32.902344 18.398438 L 32.925781 18.398438 L 37.351562 13.335938 L 38.113281 13.335938 L 35.199219 16.707031 L 38.511719 22.449219 L 37.78125 22.449219 L 34.757812 17.199219 L 32.902344 19.320312 L 32.902344 22.449219 L 32.261719 22.449219 Z M 32.261719 13.335938 " fill-opacity="1" fill-rule="nonzero"/><path fill="#3c3c3b" d="M 1.324219 24.101562 L 1.628906 24.101562 L 1.628906 25.128906 L 2.777344 25.128906 L 2.777344 24.101562 L 3.09375 24.101562 L 3.09375 26.550781 L 2.777344 26.550781 L 2.777344 25.402344 L 1.628906 25.402344 L 1.628906 26.550781 L 1.324219 26.550781 Z M 3.542969 25.648438 C 3.542969 25.511719 3.558594 25.375 3.609375 25.253906 C 3.652344 25.140625 3.714844 25.042969 3.789062 24.953125 C 3.863281 24.875 3.953125 24.8125 4.050781 24.769531 C 4.242188 24.679688 4.46875 24.679688 4.660156 24.769531 C 4.746094 24.804688 4.828125 24.859375 4.890625 24.929688 C 4.953125 25.011719 5.003906 25.101562 5.027344 25.195312 C 5.0625 25.308594 5.078125 25.425781 5.078125 25.542969 C 5.078125 25.601562 5.070312 25.65625 5.0625 25.707031 L 3.839844 25.707031 C 3.839844 25.878906 3.910156 26.042969 4.019531 26.171875 C 4.132812 26.285156 4.289062 26.347656 4.441406 26.332031 C 4.523438 26.332031 4.605469 26.320312 4.683594 26.296875 C 4.757812 26.273438 4.828125 26.234375 4.894531 26.195312 L 5.003906 26.394531 C 4.921875 26.445312 4.828125 26.496094 4.734375 26.527344 C 4.628906 26.5625 4.515625 26.582031 4.40625 26.582031 C 4.289062 26.582031 4.167969 26.5625 4.0625 26.515625 C 3.957031 26.46875 3.863281 26.410156 3.785156 26.328125 C 3.703125 26.246094 3.636719 26.148438 3.589844 26.042969 C 3.554688 25.921875 3.535156 25.785156 3.542969 25.648438 Z M 4.808594 25.511719 C 4.820312 25.363281 4.777344 25.210938 4.691406 25.085938 C 4.609375 24.984375 4.492188 24.929688 4.363281 24.9375 C 4.300781 24.9375 4.230469 24.953125 4.175781 24.980469 C 4.113281 25.003906 4.058594 25.042969 4.015625 25.089844 C 3.964844 25.140625 3.925781 25.203125 3.894531 25.269531 C 3.863281 25.351562 3.839844 25.433594 3.832031 25.511719 Z M 5.332031 26.085938 C 5.324219 25.890625 5.429688 25.71875 5.597656 25.632812 C 5.867188 25.5 6.152344 25.425781 6.449219 25.40625 C 6.449219 25.351562 6.445312 25.296875 6.429688 25.246094 C 6.417969 25.195312 6.398438 25.148438 6.367188 25.097656 C 6.339844 25.054688 6.300781 25.023438 6.257812 24.996094 C 6.203125 24.964844 6.140625 24.953125 6.078125 24.960938 C 5.976562 24.960938 5.871094 24.980469 5.777344 25.015625 C 5.691406 25.054688 5.609375 25.097656 5.535156 25.152344 L 5.414062 24.9375 C 5.511719 24.875 5.617188 24.816406 5.722656 24.773438 C 5.851562 24.722656 5.988281 24.691406 6.125 24.699219 C 6.3125 24.679688 6.492188 24.761719 6.613281 24.90625 C 6.71875 25.066406 6.773438 25.253906 6.761719 25.445312 L 6.761719 26.558594 L 6.503906 26.558594 L 6.480469 26.339844 L 6.476562 26.339844 C 6.386719 26.414062 6.292969 26.476562 6.195312 26.527344 C 6.09375 26.574219 5.984375 26.601562 5.871094 26.601562 C 5.730469 26.605469 5.59375 26.558594 5.488281 26.464844 C 5.382812 26.359375 5.324219 26.222656 5.332031 26.085938 Z M 5.636719 26.058594 C 5.628906 26.148438 5.660156 26.226562 5.730469 26.285156 C 5.796875 26.328125 5.871094 26.351562 5.953125 26.351562 C 6.039062 26.351562 6.125 26.332031 6.203125 26.296875 C 6.292969 26.246094 6.375 26.183594 6.449219 26.117188 L 6.449219 25.605469 C 6.320312 25.625 6.195312 25.644531 6.066406 25.675781 C 5.976562 25.695312 5.890625 25.730469 5.808594 25.773438 C 5.753906 25.804688 5.703125 25.847656 5.671875 25.90625 C 5.648438 25.949219 5.636719 26.003906 5.636719 26.058594 Z M 7.277344 23.898438 L 7.582031 23.898438 L 7.582031 26.210938 C 7.574219 26.246094 7.585938 26.285156 7.605469 26.316406 C 7.617188 26.332031 7.644531 26.347656 7.667969 26.347656 L 7.699219 26.347656 C 7.710938 26.347656 7.722656 26.347656 7.734375 26.347656 L 7.78125 26.574219 C 7.753906 26.589844 7.734375 26.59375 7.710938 26.601562 C 7.675781 26.601562 7.644531 26.601562 7.605469 26.601562 C 7.511719 26.613281 7.414062 26.570312 7.351562 26.496094 C 7.292969 26.402344 7.269531 26.296875 7.277344 26.191406 Z M 8.226562 24.992188 L 7.960938 24.992188 L 7.960938 24.761719 L 8.246094 24.742188 L 8.28125 24.234375 L 8.539062 24.234375 L 8.539062 24.742188 L 9.027344 24.742188 L 9.027344 24.992188 L 8.539062 24.992188 L 8.539062 26 C 8.53125 26.089844 8.554688 26.179688 8.601562 26.257812 C 8.648438 26.328125 8.738281 26.359375 8.816406 26.351562 C 8.855469 26.351562 8.886719 26.347656 8.921875 26.339844 C 8.960938 26.328125 8.996094 26.316406 9.027344 26.300781 L 9.089844 26.53125 C 9.035156 26.550781 8.980469 26.570312 8.929688 26.582031 C 8.875 26.59375 8.8125 26.601562 8.753906 26.601562 C 8.675781 26.601562 8.585938 26.589844 8.511719 26.558594 C 8.449219 26.53125 8.394531 26.488281 8.351562 26.433594 C 8.308594 26.378906 8.277344 26.316406 8.265625 26.242188 C 8.246094 26.160156 8.238281 26.078125 8.238281 25.992188 Z M 9.382812 23.898438 L 9.679688 23.898438 L 9.679688 24.992188 C 9.761719 24.910156 9.855469 24.84375 9.953125 24.78125 C 10.054688 24.71875 10.164062 24.6875 10.285156 24.691406 C 10.445312 24.679688 10.601562 24.75 10.707031 24.875 C 10.804688 25.035156 10.847656 25.214844 10.835938 25.402344 L 10.835938 26.550781 L 10.53125 26.550781 L 10.53125 25.445312 C 10.542969 25.316406 10.511719 25.183594 10.453125 25.074219 C 10.390625 24.992188 10.289062 24.949219 10.191406 24.960938 C 10.101562 24.960938 10.015625 24.984375 9.941406 25.027344 C 9.847656 25.089844 9.769531 25.160156 9.6875 25.238281 L 9.6875 26.550781 L 9.382812 26.550781 Z M 12.09375 24.101562 L 12.707031 24.101562 C 13.023438 24.078125 13.339844 24.195312 13.570312 24.414062 C 13.78125 24.664062 13.886719 24.984375 13.867188 25.316406 C 13.875 25.488281 13.851562 25.667969 13.800781 25.835938 C 13.757812 25.980469 13.675781 26.109375 13.578125 26.226562 C 13.476562 26.332031 13.351562 26.421875 13.214844 26.46875 C 13.0625 26.527344 12.894531 26.558594 12.726562 26.550781 L 12.097656 26.550781 L 12.097656 24.101562 Z M 12.683594 26.296875 C 12.925781 26.316406 13.167969 26.222656 13.328125 26.042969 C 13.484375 25.832031 13.558594 25.574219 13.539062 25.320312 C 13.558594 25.066406 13.484375 24.8125 13.328125 24.605469 C 13.160156 24.433594 12.925781 24.339844 12.683594 24.359375 L 12.402344 24.359375 L 12.402344 26.296875 C 12.402344 26.296875 12.683594 26.296875 12.683594 26.296875 Z M 14.21875 26.085938 C 14.210938 25.890625 14.316406 25.71875 14.484375 25.632812 C 14.75 25.5 15.039062 25.425781 15.335938 25.40625 C 15.335938 25.351562 15.328125 25.296875 15.316406 25.246094 C 15.304688 25.195312 15.285156 25.148438 15.253906 25.097656 C 15.222656 25.054688 15.1875 25.011719 15.144531 24.984375 C 15.085938 24.953125 15.023438 24.941406 14.957031 24.949219 C 14.855469 24.949219 14.75 24.964844 14.65625 25.003906 C 14.570312 25.042969 14.492188 25.085938 14.414062 25.140625 L 14.285156 24.9375 C 14.382812 24.875 14.484375 24.816406 14.597656 24.773438 C 14.726562 24.722656 14.863281 24.691406 15 24.699219 C 15.1875 24.679688 15.367188 24.761719 15.484375 24.90625 C 15.589844 25.066406 15.644531 25.253906 15.632812 25.445312 L 15.632812 26.558594 L 15.386719 26.558594 L 15.359375 26.339844 C 15.273438 26.414062 15.179688 26.476562 15.082031 26.527344 C 14.980469 26.574219 14.875 26.601562 14.765625 26.601562 C 14.621094 26.605469 14.476562 26.558594 14.371094 26.464844 C 14.261719 26.359375 14.203125 26.222656 14.21875 26.085938 Z M 14.515625 26.058594 C 14.507812 26.148438 14.546875 26.226562 14.613281 26.285156 C 14.683594 26.328125 14.757812 26.351562 14.839844 26.351562 C 14.925781 26.351562 15.007812 26.332031 15.082031 26.296875 C 15.175781 26.246094 15.253906 26.183594 15.328125 26.117188 L 15.328125 25.605469 C 15.199219 25.625 15.066406 25.644531 14.945312 25.675781 C 14.855469 25.695312 14.769531 25.730469 14.6875 25.773438 C 14.632812 25.804688 14.582031 25.847656 14.550781 25.90625 C 14.535156 25.949219 14.515625 26.003906 14.515625 26.058594 Z M 16.21875 24.992188 L 15.949219 24.992188 L 15.949219 24.761719 L 16.238281 24.742188 L 16.273438 24.234375 L 16.535156 24.234375 L 16.535156 24.742188 L 17.027344 24.742188 L 17.027344 24.992188 L 16.535156 24.992188 L 16.535156 26 C 16.527344 26.089844 16.554688 26.179688 16.597656 26.257812 C 16.648438 26.328125 16.734375 26.359375 16.8125 26.351562 C 16.851562 26.351562 16.882812 26.347656 16.921875 26.339844 C 16.949219 26.332031 16.988281 26.320312 17.019531 26.300781 L 17.082031 26.53125 C 17.027344 26.550781 16.96875 26.570312 16.921875 26.582031 C 16.863281 26.59375 16.808594 26.601562 16.757812 26.601562 C 16.675781 26.601562 16.589844 26.589844 16.515625 26.558594 C 16.453125 26.53125 16.398438 26.488281 16.355469 26.433594 C 16.3125 26.378906 16.28125 26.308594 16.265625 26.242188 C 16.25 26.160156 16.242188 26.078125 16.242188 25.992188 Z M 17.210938 26.085938 C 17.207031 25.890625 17.3125 25.71875 17.480469 25.632812 C 17.746094 25.5 18.03125 25.425781 18.332031 25.40625 C 18.332031 25.351562 18.324219 25.296875 18.3125 25.246094 C 18.300781 25.195312 18.28125 25.148438 18.25 25.097656 C 18.21875 25.054688 18.179688 25.023438 18.136719 24.996094 C 18.082031 24.964844 18.019531 24.953125 17.953125 24.960938 C 17.851562 24.960938 17.746094 24.980469 17.652344 25.015625 C 17.566406 25.054688 17.484375 25.097656 17.40625 25.152344 L 17.28125 24.941406 C 17.378906 24.878906 17.480469 24.824219 17.589844 24.78125 C 17.722656 24.730469 17.859375 24.699219 17.996094 24.707031 C 18.179688 24.6875 18.363281 24.769531 18.480469 24.910156 C 18.585938 25.074219 18.640625 25.257812 18.628906 25.453125 L 18.628906 26.5625 L 18.375 26.5625 L 18.347656 26.347656 L 18.34375 26.347656 C 18.257812 26.421875 18.164062 26.484375 18.070312 26.53125 C 17.96875 26.582031 17.863281 26.605469 17.753906 26.605469 C 17.609375 26.613281 17.472656 26.5625 17.367188 26.46875 C 17.261719 26.359375 17.207031 26.222656 17.210938 26.085938 Z M 17.515625 26.058594 C 17.511719 26.148438 17.542969 26.226562 17.609375 26.285156 C 17.679688 26.328125 17.753906 26.351562 17.832031 26.351562 C 17.921875 26.351562 18.007812 26.332031 18.082031 26.289062 C 18.167969 26.242188 18.257812 26.179688 18.332031 26.109375 L 18.332031 25.605469 C 18.199219 25.625 18.070312 25.644531 17.945312 25.675781 C 17.859375 25.695312 17.769531 25.730469 17.691406 25.773438 C 17.632812 25.804688 17.585938 25.847656 17.554688 25.90625 C 17.527344 25.949219 17.515625 26.003906 17.515625 26.058594 Z M 21.238281 26.550781 L 20.648438 25.519531 L 20.207031 25.519531 L 20.207031 26.550781 L 19.894531 26.550781 L 19.894531 24.101562 L 20.660156 24.101562 C 20.777344 24.101562 20.898438 24.117188 21.007812 24.140625 C 21.109375 24.160156 21.203125 24.203125 21.28125 24.257812 C 21.355469 24.3125 21.417969 24.390625 21.460938 24.46875 C 21.511719 24.574219 21.53125 24.6875 21.523438 24.800781 C 21.53125 24.964844 21.480469 25.128906 21.375 25.257812 C 21.269531 25.375 21.125 25.457031 20.972656 25.496094 L 21.59375 26.5625 C 21.59375 26.5625 21.238281 26.550781 21.238281 26.550781 Z M 20.207031 25.265625 L 20.617188 25.265625 C 20.773438 25.277344 20.929688 25.234375 21.058594 25.148438 C 21.164062 25.058594 21.21875 24.921875 21.214844 24.785156 C 21.226562 24.65625 21.171875 24.527344 21.058594 24.445312 C 20.921875 24.371094 20.773438 24.339844 20.617188 24.34375 L 20.207031 24.34375 C 20.207031 24.359375 20.207031 25.265625 20.207031 25.265625 Z M 21.804688 25.648438 C 21.804688 25.511719 21.824219 25.375 21.871094 25.253906 C 21.914062 25.140625 21.976562 25.042969 22.050781 24.953125 C 22.128906 24.875 22.214844 24.8125 22.3125 24.769531 C 22.507812 24.679688 22.730469 24.679688 22.921875 24.769531 C 23.007812 24.804688 23.089844 24.859375 23.152344 24.929688 C 23.214844 25.011719 23.265625 25.101562 23.289062 25.195312 C 23.328125 25.308594 23.339844 25.425781 23.339844 25.542969 C 23.339844 25.601562 23.332031 25.65625 23.328125 25.707031 L 22.101562 25.707031 C 22.101562 25.878906 22.171875 26.042969 22.28125 26.171875 C 22.394531 26.285156 22.550781 26.347656 22.703125 26.332031 C 22.785156 26.332031 22.867188 26.320312 22.945312 26.296875 C 23.023438 26.273438 23.089844 26.234375 23.160156 26.195312 L 23.265625 26.394531 C 23.175781 26.445312 23.089844 26.488281 22.996094 26.527344 C 22.890625 26.5625 22.78125 26.582031 22.667969 26.582031 C 22.550781 26.582031 22.429688 26.5625 22.324219 26.515625 C 22.21875 26.46875 22.128906 26.410156 22.046875 26.328125 C 21.964844 26.242188 21.902344 26.140625 21.859375 26.027344 C 21.828125 25.910156 21.804688 25.78125 21.804688 25.648438 Z M 23.078125 25.511719 C 23.089844 25.363281 23.046875 25.210938 22.960938 25.085938 C 22.878906 24.984375 22.753906 24.929688 22.628906 24.9375 C 22.566406 24.9375 22.507812 24.949219 22.445312 24.972656 C 22.382812 24.996094 22.324219 25.035156 22.28125 25.085938 C 22.234375 25.132812 22.195312 25.195312 22.164062 25.265625 C 22.132812 25.347656 22.109375 25.425781 22.101562 25.507812 L 23.078125 25.507812 Z M 23.6875 26.140625 C 23.761719 26.203125 23.84375 26.257812 23.929688 26.300781 C 24.023438 26.347656 24.117188 26.363281 24.222656 26.363281 C 24.320312 26.371094 24.414062 26.339844 24.488281 26.285156 C 24.542969 26.234375 24.582031 26.160156 24.582031 26.085938 C 24.582031 26.042969 24.570312 26 24.542969 25.960938 C 24.519531 25.921875 24.488281 25.890625 24.449219 25.867188 C 24.40625 25.84375 24.363281 25.816406 24.320312 25.800781 L 24.171875 25.742188 C 24.101562 25.71875 24.039062 25.695312 23.980469 25.667969 C 23.917969 25.644531 23.859375 25.605469 23.804688 25.5625 C 23.753906 25.527344 23.710938 25.476562 23.679688 25.421875 C 23.648438 25.359375 23.628906 25.289062 23.628906 25.222656 C 23.628906 25.152344 23.644531 25.085938 23.675781 25.015625 C 23.707031 24.953125 23.742188 24.898438 23.796875 24.855469 C 23.855469 24.804688 23.921875 24.769531 23.996094 24.75 C 24.085938 24.722656 24.171875 24.707031 24.257812 24.710938 C 24.363281 24.710938 24.476562 24.730469 24.574219 24.773438 C 24.664062 24.8125 24.75 24.859375 24.824219 24.917969 L 24.667969 25.101562 C 24.613281 25.054688 24.542969 25.015625 24.480469 24.980469 C 24.414062 24.949219 24.339844 24.9375 24.257812 24.9375 C 24.164062 24.929688 24.078125 24.953125 24.003906 25.015625 C 23.953125 25.058594 23.921875 25.128906 23.921875 25.195312 C 23.921875 25.234375 23.933594 25.269531 23.953125 25.308594 C 23.980469 25.339844 24.011719 25.371094 24.046875 25.390625 C 24.089844 25.414062 24.128906 25.4375 24.175781 25.453125 L 24.332031 25.507812 L 24.527344 25.589844 C 24.585938 25.613281 24.648438 25.648438 24.707031 25.6875 C 24.753906 25.730469 24.804688 25.78125 24.835938 25.835938 C 24.875 25.90625 24.890625 25.980469 24.886719 26.054688 C 24.886719 26.128906 24.875 26.195312 24.84375 26.265625 C 24.8125 26.328125 24.769531 26.382812 24.71875 26.425781 C 24.65625 26.484375 24.585938 26.519531 24.507812 26.546875 C 24.414062 26.574219 24.320312 26.589844 24.222656 26.589844 C 24.097656 26.589844 23.964844 26.5625 23.847656 26.519531 C 23.738281 26.476562 23.636719 26.414062 23.542969 26.339844 Z M 25.117188 25.648438 C 25.117188 25.511719 25.132812 25.375 25.183594 25.253906 C 25.226562 25.140625 25.289062 25.042969 25.363281 24.953125 C 25.4375 24.875 25.527344 24.8125 25.632812 24.769531 C 25.824219 24.679688 26.046875 24.679688 26.242188 24.769531 C 26.328125 24.804688 26.410156 24.859375 26.46875 24.929688 C 26.53125 25.011719 26.582031 25.101562 26.605469 25.195312 C 26.652344 25.363281 26.664062 25.542969 26.644531 25.710938 L 25.414062 25.710938 C 25.414062 25.886719 25.484375 26.046875 25.59375 26.179688 C 25.707031 26.289062 25.863281 26.351562 26.015625 26.339844 C 26.097656 26.339844 26.179688 26.328125 26.257812 26.300781 C 26.332031 26.277344 26.402344 26.242188 26.46875 26.203125 L 26.574219 26.402344 C 26.496094 26.453125 26.402344 26.5 26.308594 26.53125 C 26.203125 26.570312 26.089844 26.589844 25.980469 26.589844 C 25.863281 26.589844 25.742188 26.570312 25.636719 26.519531 C 25.53125 26.476562 25.4375 26.414062 25.363281 26.332031 C 25.285156 26.246094 25.222656 26.148438 25.179688 26.035156 C 25.140625 25.917969 25.117188 25.78125 25.117188 25.648438 Z M 26.382812 25.511719 C 26.394531 25.363281 26.351562 25.210938 26.265625 25.085938 C 26.183594 24.984375 26.066406 24.929688 25.9375 24.9375 C 25.875 24.9375 25.8125 24.949219 25.75 24.972656 C 25.6875 24.996094 25.632812 25.035156 25.589844 25.085938 C 25.539062 25.132812 25.5 25.195312 25.46875 25.265625 C 25.4375 25.347656 25.414062 25.425781 25.40625 25.507812 L 26.382812 25.507812 Z M 26.90625 26.085938 C 26.898438 25.890625 27.003906 25.71875 27.171875 25.632812 C 27.441406 25.5 27.726562 25.425781 28.023438 25.40625 C 28.023438 25.351562 28.019531 25.296875 28.003906 25.246094 C 27.992188 25.195312 27.972656 25.148438 27.941406 25.097656 C 27.910156 25.054688 27.875 25.023438 27.832031 24.996094 C 27.773438 24.964844 27.714844 24.953125 27.644531 24.960938 C 27.546875 24.960938 27.441406 24.980469 27.347656 25.015625 C 27.257812 25.054688 27.179688 25.097656 27.105469 25.152344 L 26.980469 24.941406 C 27.078125 24.878906 27.179688 24.824219 27.289062 24.78125 C 27.421875 24.730469 27.558594 24.699219 27.695312 24.707031 C 27.882812 24.6875 28.0625 24.769531 28.179688 24.910156 C 28.285156 25.074219 28.339844 25.257812 28.328125 25.453125 L 28.328125 26.5625 L 28.074219 26.5625 L 28.046875 26.347656 L 28.042969 26.347656 C 27.957031 26.421875 27.863281 26.484375 27.769531 26.53125 C 27.667969 26.582031 27.558594 26.605469 27.445312 26.605469 C 27.304688 26.613281 27.167969 26.5625 27.0625 26.46875 C 26.960938 26.363281 26.898438 26.226562 26.90625 26.085938 Z M 27.210938 26.058594 C 27.203125 26.148438 27.234375 26.226562 27.304688 26.285156 C 27.371094 26.328125 27.445312 26.351562 27.527344 26.351562 C 27.613281 26.351562 27.695312 26.332031 27.769531 26.296875 C 27.863281 26.246094 27.941406 26.183594 28.019531 26.117188 L 28.019531 25.605469 C 27.886719 25.625 27.757812 25.644531 27.632812 25.675781 C 27.546875 25.695312 27.457031 25.730469 27.378906 25.773438 C 27.320312 25.804688 27.273438 25.847656 27.242188 25.90625 C 27.214844 25.949219 27.203125 26.003906 27.210938 26.058594 Z M 28.855469 24.742188 L 29.109375 24.742188 L 29.136719 25.074219 L 29.148438 25.074219 C 29.203125 24.964844 29.277344 24.875 29.378906 24.800781 C 29.460938 24.730469 29.566406 24.699219 29.671875 24.699219 C 29.738281 24.699219 29.800781 24.710938 29.863281 24.738281 L 29.800781 25.003906 C 29.777344 24.996094 29.746094 24.984375 29.71875 24.980469 C 29.6875 24.980469 29.65625 24.980469 29.628906 24.980469 C 29.539062 24.984375 29.453125 25.015625 29.382812 25.074219 C 29.285156 25.160156 29.210938 25.269531 29.167969 25.402344 L 29.167969 26.5625 L 28.863281 26.5625 C 28.855469 26.5625 28.855469 24.742188 28.855469 24.742188 Z M 29.925781 25.648438 C 29.925781 25.511719 29.949219 25.375 29.992188 25.246094 C 30.035156 25.132812 30.097656 25.035156 30.1875 24.949219 C 30.265625 24.867188 30.359375 24.804688 30.464844 24.761719 C 30.570312 24.71875 30.683594 24.699219 30.796875 24.699219 C 30.902344 24.699219 31.007812 24.71875 31.105469 24.769531 C 31.1875 24.804688 31.261719 24.859375 31.328125 24.917969 L 31.175781 25.117188 C 31.125 25.074219 31.070312 25.027344 31.011719 24.996094 C 30.949219 24.964844 30.882812 24.953125 30.8125 24.953125 C 30.652344 24.953125 30.503906 25.023438 30.402344 25.152344 C 30.355469 25.222656 30.308594 25.296875 30.285156 25.375 C 30.253906 25.46875 30.242188 25.5625 30.242188 25.664062 C 30.242188 25.761719 30.253906 25.855469 30.285156 25.949219 C 30.308594 26.027344 30.347656 26.105469 30.398438 26.164062 C 30.445312 26.226562 30.503906 26.277344 30.578125 26.308594 C 30.652344 26.339844 30.726562 26.359375 30.808594 26.359375 C 30.886719 26.359375 30.96875 26.339844 31.042969 26.300781 C 31.113281 26.273438 31.175781 26.226562 31.230469 26.171875 L 31.367188 26.371094 C 31.285156 26.4375 31.191406 26.496094 31.09375 26.53125 C 30.992188 26.574219 30.886719 26.59375 30.777344 26.59375 C 30.664062 26.59375 30.554688 26.570312 30.445312 26.53125 C 30.339844 26.496094 30.25 26.425781 30.171875 26.347656 C 30.09375 26.257812 30.03125 26.160156 29.992188 26.046875 C 29.949219 25.917969 29.925781 25.785156 29.925781 25.648438 Z M 31.714844 23.898438 L 32.019531 23.898438 L 32.019531 24.617188 L 32.007812 24.992188 C 32.085938 24.910156 32.179688 24.84375 32.28125 24.78125 C 32.378906 24.71875 32.492188 24.6875 32.609375 24.691406 C 32.769531 24.679688 32.925781 24.75 33.027344 24.875 C 33.125 25.027344 33.167969 25.214844 33.15625 25.402344 L 33.15625 26.550781 L 32.851562 26.550781 L 32.851562 25.445312 C 32.863281 25.316406 32.832031 25.183594 32.769531 25.074219 C 32.707031 24.992188 32.609375 24.949219 32.511719 24.960938 C 32.421875 24.960938 32.335938 24.984375 32.261719 25.027344 C 32.175781 25.089844 32.085938 25.160156 32.011719 25.238281 L 32.011719 26.550781 L 31.714844 26.550781 Z M 34.40625 24.101562 L 34.714844 24.101562 L 34.714844 25.542969 C 34.714844 25.667969 34.726562 25.792969 34.757812 25.910156 C 34.785156 26 34.820312 26.078125 34.882812 26.152344 C 34.933594 26.210938 34.996094 26.253906 35.0625 26.285156 C 35.214844 26.332031 35.367188 26.332031 35.515625 26.285156 C 35.585938 26.257812 35.652344 26.214844 35.703125 26.152344 C 35.761719 26.085938 35.804688 26.003906 35.828125 25.910156 C 35.859375 25.792969 35.878906 25.667969 35.871094 25.542969 L 35.871094 24.101562 L 36.171875 24.101562 L 36.171875 25.539062 C 36.175781 25.707031 36.152344 25.875 36.101562 26.027344 C 36.0625 26.152344 36.003906 26.265625 35.914062 26.359375 C 35.839844 26.4375 35.742188 26.5 35.636719 26.539062 C 35.523438 26.574219 35.40625 26.59375 35.289062 26.59375 C 35.167969 26.59375 35.050781 26.574219 34.941406 26.539062 C 34.835938 26.5 34.734375 26.4375 34.660156 26.359375 C 34.574219 26.265625 34.511719 26.152344 34.472656 26.027344 C 34.425781 25.867188 34.398438 25.707031 34.40625 25.539062 Z M 36.765625 24.101562 L 37.078125 24.101562 L 37.078125 25.332031 L 37.089844 25.332031 L 38.109375 24.101562 L 38.460938 24.101562 L 37.691406 25.035156 L 38.582031 26.550781 L 38.234375 26.550781 L 37.5 25.277344 L 37.078125 25.769531 L 37.078125 26.546875 L 36.765625 26.546875 Z M 36.765625 24.101562 " fill-opacity="1" fill-rule="nonzero"/><g clip-path="url(#6700e0bb62)"><path fill="url(#6380e991d2)" d="M 1.296875 22.449219 L 1.296875 13.335938 L 8.585938 13.335938 L 8.585938 22.449219 Z M 1.296875 22.449219 " fill-rule="nonzero"/></g><g clip-path="url(#57c2684984)"><g clip-path="url(#3a8ed7223f)"><path fill="url(#6fcfccbc9e)" d="M 9.519531 22.449219 L 9.519531 13.328125 L 16.707031 13.328125 L 16.707031 22.449219 Z M 9.519531 22.449219 " fill-rule="nonzero"/></g></g><g clip-path="url(#d49cfcea50)"><g clip-path="url(#3d397ad7ea)"><path fill="url(#6d5b79790a)" d="M 17.398438 22.449219 L 17.398438 13.335938 L 24.648438 13.335938 L 24.648438 22.449219 Z M 17.398438 22.449219 " fill-rule="nonzero"/></g></g></svg>