<?xml version="1.0" encoding="UTF-8"?>
<svg id="Layer_1" data-name="Layer 1" xmlns="http://www.w3.org/2000/svg" xmlns:xlink="http://www.w3.org/1999/xlink" viewBox="0 0 2545.72 1255">
  <defs>
    <style>
      .cls-1 {
        fill: #d97706;
      }

      .cls-2 {
        fill: #525b6e;
      }

      .cls-3 {
        fill: #fdfdfd;
      }

      .cls-4 {
        fill: #2f3e9e;
      }
    </style>
  </defs>
  <image width="1254" height="1254" transform="translate(0 .65)" xlink:href="../../icons/Primary Icon.png"/>
  <g>
    <path d="M2266.9,588.66l-38.56,69.38c-1.37,2.46-3.44,3.45-6.26,3.45l-103.2-.04.1,159.54c0,2.41-.29,3.86-1.74,5.66l-52.52,65.59-41.73,52.57c-1.62,2.03-4.49,1.91-6.42.86-2.06-1.13-2.82-2.83-2.82-5.86l-.05-518.79,65.97-93.31c1.36-1.92,2.48-2.95,4.86-3.44l302.11.02c2.16,0,3.25,2.03,3.79,3.14.7,1.43.6,3.84-.29,5.47l-44.94,82.9-6.83,12.88c-1.28,2.41-3.04,3.45-6.04,3.45h-197.41c-8.23,1.22-14.45,6.35-16.04,14.49l.11,109.18,156.96.04c2.24,0,3.48.88,4.49,2.12,1.1,1.35,1.64,3.66.68,5.37l-14.24,25.31Z"/>
    <path class="cls-2" d="M2267.23,566.26l-46.99,84.89-105.83.02c-3.81.14-6.2,2.62-5.97,6.52l.06,163.22-84.18,105.14-.07-66.42.02-435.48,63.32-89.47,289.82.02-28.88,52.67-18.33,34.24-195.49.23c-15.71.02-26.43,13.7-26.41,28.54l.18,110.26c.14,3.21,2.1,5.26,5.4,5.49l153.35.12Z"/>
  </g>
  <rect class="cls-3" x="1290.72" width="1255" height="1255"/>
  <rect class="cls-1" x="1891.61" y="587.87" width="69.23" height="830.23" transform="translate(923.2014 2929.196) rotate(-89.9989)"/>
  <rect class="cls-1" x="1521.69" y="978.47" width="809.5" height="49.12"/>
  <g>
    <path class="cls-4" d="M1844.59,721.99c14.48-24.02,17.1-52.52,6.8-78.52-6.22-15.7-16.09-28.83-29.89-38.78-13.02-9.38-27.86-15.21-44.3-15.22l-118.11-.08c-3.45,0-6.31-1.7-6.31-5.47v-96.7c0-2.61,1.56-5.97,4.59-5.97h116.78c15.16,0,28.98-4.34,41.06-13.15,7.06-5.15,13.35-10.75,17.89-18.26l7.84-12.96c14.94-31.65,8.21-69.62-16.57-94.19-13.09-12.37-29.4-20.33-47.78-20.35l-159.53-.15-.05,366.41c0,2.48-.78,4-2.34,5.54l-37.06,36.43-56.31,56.3c-1.89,1.89-4.55,2.29-6.68,1.3-1.84-.86-3.4-2.92-3.4-5.83l-.02-562.17c0-3.52,1.99-6.45,5.8-6.45l263.9.23c21.85.02,43.51,5.36,63.31,13.88,45.47,19.58,80.97,56.57,97.83,103.2,12.23,33.82,14.67,70.29,7.69,105.45-7.58,38.17-29.18,74.53-60.92,97.46,36.32,22.77,61.05,60.17,69.82,102.23,10.49,47.8,3.35,98.01-21.28,140.44-27.17,46.81-73.65,80.59-126.89,91.13-13.88,2.75-27.04,3.47-41.24,3.47l-249.69-.04c-2.85,0-4.74-1.01-5.68-3.26-.8-1.9-.32-4.33,1.34-6.24l34.68-40.02,48.37-55.66c2.06-2.37,3.57-3.4,7.02-3.39l164.58.34c30.79.06,58.74-14.32,74.78-40.92Z"/>
    <path class="cls-4" d="M1619.91,772.89l159.16-.33c18.13-.04,43.29-10.45,56.1-23.4l7.38-7.47c17.45-19.18,26.73-44.45,25.37-70.72-1.92-37.06-24.44-70.09-58.24-84.98-9.71-4.28-19.39-6-30.08-6.79l-116.32-.08v-87.67s115.05-.06,115.05-.06c29.34-2.73,49.77-15.35,66.05-39.51,9.99-14.82,14.47-32.54,14.54-50.44.09-24.1-8.51-46.05-25-63.66-14.1-15.05-34.28-25.41-55.59-25.45l-166.28-.34c-2.99,0-5.12,2.72-5.12,5.61l.06,369.49-22.75,22.54-38.53,37.97-12,11.96-10.7,10.81c-.49.47-1.19.63-1.26-.24l.04-545.93,263.38.14c13.08,0,25.27,3.54,37.71,6.36,13,4.54,25.11,9.41,36.93,16.56,25.7,15.54,47.16,36.78,61.62,63.3,16.38,30.04,23.62,63.73,21.7,97.8-1.29,23-6.95,44.56-17.07,65.22-8.15,16.65-19.31,31.07-32.81,43.74-5.68,5.33-11.73,9.41-18.12,13.81-1.27.87-1.26,3.28-1.02,4.58.22,1.22,1.43,2.86,3.05,3.62,6.41,3.03,11.82,7,17.44,11.32,26.28,20.2,44.47,49.52,52.5,81.66l5.26,30.27.34,9.04v15.96c-1.16,36.57-14.59,73.93-37.1,102.74-6.24,7.99-12.41,15.52-20.04,22.25-10.43,9.21-20.8,17.79-33.02,24.56-15.59,8.65-31.56,15.78-49.09,19.37-9.88,2.02-19.37,4.33-29.65,4.34l-253.93.18,21.42-25.01,12.49-14.55,26.38-29.91,16.25-18.84c4.74,1.1,8.71.2,13.5.19Z"/>
  </g>
</svg>